<svg width="25" height="25" viewBox="0 0 25 25" fill="none" xmlns="http://www.w3.org/2000/svg">
<rect width="25" height="25" rx="12.5" fill="#4EC246"/>
<path d="M9.375 11.25H17.5C17.8452 11.25 18.125 11.5298 18.125 11.875V18.125C18.125 18.4702 17.8452 18.75 17.5 18.75H7.5C7.15483 18.75 6.875 18.4702 6.875 18.125V11.875C6.875 11.5298 7.15483 11.25 7.5 11.25H8.125V10.625C8.125 8.20876 10.0838 6.25 12.5 6.25C14.2128 6.25 15.6957 7.23425 16.414 8.66801L15.2957 9.22715C14.7826 8.20304 13.7234 7.5 12.5 7.5C10.7741 7.5 9.375 8.89911 9.375 10.625V11.25ZM11.25 14.375V15.625H13.75V14.375H11.25Z" fill="white"/>
</svg>
