<svg width="24" height="25" viewBox="0 0 24 25" fill="none" xmlns="http://www.w3.org/2000/svg">
<rect y="0.828674" width="24" height="24" rx="12" fill="#343E59"/>
<path d="M16.3636 17.2688C16.3636 17.578 16.1194 17.8287 15.8182 17.8287H8.18182C7.88057 17.8287 7.63636 17.578 7.63636 17.2688V12.2303H6L11.6331 6.97426C11.8411 6.78014 12.1589 6.78014 12.3669 6.97426L18 12.2303H16.3636V17.2688ZM12 14.4696C12.7531 14.4696 13.3636 13.843 13.3636 13.07C13.3636 12.2971 12.7531 11.6705 12 11.6705C11.2469 11.6705 10.6364 12.2971 10.6364 13.07C10.6364 13.843 11.2469 14.4696 12 14.4696Z" fill="#4EC246"/>
</svg>
