<svg width="20" height="20" viewBox="0 0 20 20" fill="none" xmlns="http://www.w3.org/2000/svg">
<rect width="20" height="20" rx="10" fill="#F2F2FA"/>
<path d="M7.09865 6.0004C7.09846 6.40754 6.83926 6.77391 6.44328 6.92676C6.0473 7.07961 5.59362 6.98842 5.29615 6.69618C4.99869 6.40394 4.91685 5.96902 5.08923 5.59649C5.26161 5.22397 5.65378 4.98824 6.08082 5.00045C6.64801 5.01668 7.09891 5.45965 7.09865 6.0004ZM7.13013 7.74032H5.03151V14H7.13013V7.74032ZM10.446 7.74032H8.35783V14H10.425V10.7152C10.425 8.88525 12.9276 8.71526 12.9276 10.7152V14H15V10.0352C15 6.95036 11.2959 7.06535 10.425 8.58026L10.446 7.74032Z" fill="#9299AB"/>
</svg>
