<svg width="15" height="15" viewBox="0 0 15 15" fill="none" xmlns="http://www.w3.org/2000/svg">
<path d="M11.4775 10.8525L7.5 14.8299L3.52252 10.8525C1.32582 8.65575 1.32582 5.09422 3.52252 2.89752C5.71922 0.700825 9.28075 0.700825 11.4775 2.89752C13.6742 5.09422 13.6742 8.65575 11.4775 10.8525ZM7.5 9.375C8.88069 9.375 10 8.25569 10 6.875C10 5.49429 8.88069 4.375 7.5 4.375C6.11929 4.375 5 5.49429 5 6.875C5 8.25569 6.11929 9.375 7.5 9.375ZM7.5 8.125C6.80963 8.125 6.25 7.56537 6.25 6.875C6.25 6.18464 6.80963 5.625 7.5 5.625C8.19037 5.625 8.75 6.18464 8.75 6.875C8.75 7.56537 8.19037 8.125 7.5 8.125Z" fill="#4EC246"/>
</svg>
