<svg width="15" height="15" viewBox="0 0 15 15" fill="none" xmlns="http://www.w3.org/2000/svg">
<path d="M10.1111 6.6H10.5556C10.801 6.6 11 6.80146 11 7.05V11.55C11 11.7985 10.801 12 10.5556 12H3.44444C3.19899 12 3 11.7985 3 11.55V7.05C3 6.80146 3.19899 6.6 3.44444 6.6H3.88889V6.15C3.88889 4.4103 5.28178 3 7 3C8.71822 3 10.1111 4.4103 10.1111 6.15V6.6ZM9.22222 6.6V6.15C9.22222 4.90736 8.22729 3.9 7 3.9C5.7727 3.9 4.77778 4.90736 4.77778 6.15V6.6H9.22222ZM6.55556 8.4V10.2H7.44444V8.4H6.55556Z" fill="#9299AB"/>
</svg>
