<svg width="25" height="25" viewBox="0 0 25 25" fill="none" xmlns="http://www.w3.org/2000/svg">
<rect width="25" height="25" rx="12.5" fill="white" fill-opacity="0.3"/>
<path d="M6.875 12.5C6.875 13.7081 7.85438 14.6875 9.0625 14.6875C9.81469 14.6875 10.3247 14.4164 10.7495 13.9916C11.1384 13.6027 11.4508 13.0918 11.7841 12.5C11.4508 11.9083 11.1384 11.3973 10.7495 11.0084C10.3247 10.5836 9.81469 10.3125 9.0625 10.3125C7.85438 10.3125 6.875 11.2919 6.875 12.5ZM9.0625 15.9375C7.16402 15.9375 5.625 14.3985 5.625 12.5C5.625 10.6015 7.16402 9.0625 9.0625 9.0625C10.1853 9.0625 11.0034 9.4945 11.6334 10.1245C11.9679 10.459 12.2499 10.851 12.5 11.2511C12.7501 10.851 13.0321 10.459 13.3666 10.1245C13.9966 9.4945 14.8147 9.0625 15.9375 9.0625C17.836 9.0625 19.375 10.6015 19.375 12.5C19.375 14.3985 17.836 15.9375 15.9375 15.9375C14.8147 15.9375 13.9966 15.5055 13.3666 14.8756C13.0321 14.541 12.7501 14.149 12.5 13.7489C12.2499 14.149 11.9679 14.541 11.6334 14.8756C11.0034 15.5055 10.1853 15.9375 9.0625 15.9375ZM13.2159 12.5C13.5492 13.0918 13.8616 13.6027 14.2506 13.9916C14.6753 14.4164 15.1853 14.6875 15.9375 14.6875C17.1456 14.6875 18.125 13.7081 18.125 12.5C18.125 11.2919 17.1456 10.3125 15.9375 10.3125C15.1853 10.3125 14.6753 10.5836 14.2506 11.0084C13.8616 11.3973 13.5492 11.9083 13.2159 12.5Z" fill="white"/>
</svg>
