<svg width="20" height="20" viewBox="0 0 20 20" fill="none" xmlns="http://www.w3.org/2000/svg">
<rect width="20" height="20" rx="10" fill="#F2F2FA"/>
<path d="M12.563 11.2815L11.9222 10.6407L12.563 10C13.2708 9.29224 13.2708 8.14474 12.563 7.43698C11.8553 6.72922 10.7078 6.72922 10 7.43698L9.35925 8.07774L8.71849 7.43698L9.35925 6.79623C10.4209 5.73459 12.1421 5.73459 13.2038 6.79623C14.2654 7.85786 14.2654 9.57913 13.2038 10.6407L12.563 11.2815ZM11.2815 12.563L10.6407 13.2038C9.57913 14.2654 7.85786 14.2654 6.79623 13.2038C5.73459 12.1421 5.73459 10.4209 6.79623 9.35925L7.43698 8.71849L8.07774 9.35925L7.43698 10C6.72922 10.7078 6.72922 11.8553 7.43698 12.563C8.14474 13.2708 9.29224 13.2708 10 12.563L10.6407 11.9223L11.2815 12.563ZM11.2815 8.07774L11.9222 8.71849L8.71849 11.9223L8.07774 11.2815L11.2815 8.07774Z" fill="#9299AB"/>
</svg>
